<svg viewBox="0 0 313 147" fill="none" xmlns="http://www.w3.org/2000/svg">
<path d="M108.353 63.0231C104.73 63.0231 101.383 62.4689 98.314 61.3606C95.2873 60.2096 92.6443 58.5897 90.385 56.5008C88.1683 54.412 86.4418 51.9395 85.2056 49.0834C83.9693 46.2272 83.3512 43.0727 83.3512 39.6197C83.3512 36.1668 83.9693 33.0122 85.2056 30.1561C86.4418 27.2999 88.1896 24.8274 90.4489 22.7386C92.7083 20.6498 95.3726 19.0512 98.4419 17.9428C101.554 16.7918 104.964 16.2163 108.673 16.2163C113.106 16.2163 117.05 16.9623 120.502 18.4544C123.998 19.9464 126.876 22.0778 129.135 24.8487L119.479 33.3532C118.073 31.7333 116.538 30.5184 114.875 29.7084C113.256 28.8559 111.444 28.4296 109.44 28.4296C107.778 28.4296 106.264 28.6853 104.9 29.1969C103.579 29.7084 102.449 30.4545 101.511 31.4349C100.573 32.4154 99.8487 33.5877 99.3371 34.9518C98.8256 36.316 98.5698 37.8719 98.5698 39.6197C98.5698 41.2823 98.8256 42.8169 99.3371 44.2237C99.8487 45.5878 100.573 46.7601 101.511 47.7406C102.449 48.721 103.557 49.4884 104.836 50.0425C106.158 50.5541 107.628 50.8099 109.248 50.8099C110.954 50.8099 112.616 50.5328 114.236 49.9786C115.856 49.3818 117.582 48.38 119.415 46.9732L127.856 57.3321C125.128 59.1652 122.016 60.5719 118.52 61.5524C115.025 62.5329 111.636 63.0231 108.353 63.0231ZM114.748 55.4138V38.4048H127.856V57.3321L114.748 55.4138ZM134.286 62V17.2394H155.835C160.012 17.2394 163.615 17.9215 166.641 19.2856C169.711 20.6498 172.077 22.6107 173.739 25.1684C175.402 27.6836 176.233 30.6676 176.233 34.1206C176.233 37.5735 175.402 40.5576 173.739 43.0727C172.077 45.5452 169.711 47.4422 166.641 48.7637C163.615 50.0852 160.012 50.7459 155.835 50.7459H142.662L149.377 44.5434V62H134.286ZM161.078 62L150.08 45.6944H166.066L177.192 62H161.078ZM149.377 46.2059L142.662 39.3639H154.876C156.965 39.3639 158.499 38.895 159.48 37.9572C160.503 37.0193 161.014 35.7405 161.014 34.1206C161.014 32.5007 160.503 31.2218 159.48 30.2839C158.499 29.3461 156.965 28.8772 154.876 28.8772H142.662L149.377 22.0352V46.2059ZM195.743 33.8648H215.694V44.7352H195.743V33.8648ZM196.766 50.618H219.147V62H181.931V17.2394H218.315V28.6214H196.766V50.618ZM220.096 62L239.663 17.2394H254.498L274.065 62H258.462L244.011 24.4011H249.894L235.443 62H220.096ZM231.734 54.1989L235.571 43.3284H256.16L259.997 54.1989H231.734ZM283.944 62V28.9411H270.836V17.2394H312.144V28.9411H299.035V62H283.944Z" fill="currentColor"/>
<path d="M31.2282 130.332V85.5713H46.3189V130.332H31.2282ZM53.5835 130.332V85.5713H75.644C80.6316 85.5713 85.0224 86.4879 88.8164 88.3209C92.6104 90.1113 95.5731 92.6691 97.7046 95.9942C99.8361 99.3192 100.902 103.284 100.902 107.888C100.902 112.534 99.8361 116.541 97.7046 119.909C95.5731 123.234 92.6104 125.813 88.8164 127.646C85.0224 129.437 80.6316 130.332 75.644 130.332H53.5835ZM68.6742 118.566H75.0046C77.1361 118.566 78.9904 118.161 80.5677 117.351C82.1876 116.541 83.4452 115.348 84.3404 113.77C85.2356 112.151 85.6832 110.19 85.6832 107.888C85.6832 105.628 85.2356 103.71 84.3404 102.133C83.4452 100.555 82.1876 99.3619 80.5677 98.5519C78.9904 97.742 77.1361 97.337 75.0046 97.337H68.6742V118.566ZM120.224 102.197H140.174V113.067H120.224V102.197ZM121.247 118.95H143.627V130.332H106.412V85.5713H142.796V96.9533H121.247V118.95ZM144.577 130.332L164.144 85.5713H178.979L198.545 130.332H182.943L168.492 92.733H174.375L159.923 130.332H144.577ZM156.215 122.531L160.051 111.66H180.641L184.478 122.531H156.215Z" fill="currentColor"/>
<path d="M31.9414 30.4414L26.9856 35.0003L31.9414 40.3191M44.331 30.4414L49.2868 35.0003L44.331 40.3191M40.6141 25.5026L35.6583 45.258" stroke="currentColor" stroke-width="3.36046" stroke-linecap="round" stroke-linejoin="round"/>
<path d="M58.9254 34.5018C58.7036 40.2544 56.5272 45.7596 52.7555 50.1089C51.6385 51.3534 50.7866 52.8122 50.2515 54.3965V58.8428C50.2515 59.9231 49.8223 60.9592 49.0584 61.7231C48.2945 62.487 47.2585 62.9161 46.1782 62.9161H30.2709C29.1906 62.9161 28.1546 62.487 27.3907 61.7231C26.6268 60.9592 26.1977 59.9231 26.1977 58.8428V54.3965C25.6623 52.8123 24.8104 51.3535 23.6937 50.1089C19.9188 45.7608 17.7394 40.2555 17.5151 34.5018C17.515 29.7222 19.1681 25.0898 22.194 21.3901C25.2199 17.6904 29.4323 15.1513 34.1168 14.2032C38.8014 13.2552 43.6697 13.9567 47.896 16.1888C52.1223 18.4208 55.4464 22.046 57.3047 26.4495C58.385 28.9993 58.9392 31.7411 58.934 34.5103L58.9254 34.5018ZM54.8521 34.5018C54.8521 30.0918 53.1003 25.8626 49.982 22.7443C46.8637 19.626 42.6345 17.8742 38.2246 17.8742C33.8147 17.8742 29.5854 19.626 26.4671 22.7443C23.3488 25.8626 21.597 30.0918 21.597 34.5018C21.597 44.6335 30.2709 49.1184 30.2709 54.3965V58.8428H46.1782V54.3965C46.1782 49.1184 54.8521 44.6335 54.8521 34.5018ZM48.2148 67.6968C48.2154 67.9647 48.1631 68.23 48.061 68.4776C47.9589 68.7251 47.809 68.9502 47.6198 69.1397C47.4306 69.3293 47.2059 69.4797 46.9586 69.5823C46.7112 69.685 46.446 69.7378 46.1782 69.7378H30.2709C29.7308 69.7378 29.2128 69.5232 28.8308 69.1413C28.4489 68.7593 28.2343 68.2413 28.2343 67.7011C28.2343 67.161 28.4489 66.643 28.8308 66.261C29.2128 65.8791 29.7308 65.6645 30.2709 65.6645H46.1782C46.7176 65.6645 47.235 65.8785 47.6168 66.2595C47.9986 66.6405 48.2137 67.1574 48.2148 67.6968ZM45.4707 73.1079C45.5401 73.3085 45.5452 73.5258 45.4852 73.7295C45.4253 73.9331 45.3033 74.113 45.1363 74.2441C43.1287 75.8031 40.6592 76.6494 38.1174 76.6494C35.5755 76.6494 33.106 75.8031 31.0985 74.2441C30.9298 74.1147 30.8061 73.9356 30.7445 73.7322C30.683 73.5287 30.6868 73.3111 30.7555 73.1099C30.8241 72.9087 30.9541 72.7341 31.1271 72.6107C31.3002 72.4873 31.5076 72.4212 31.7202 72.4219H44.5103C44.7224 72.4217 44.9294 72.4877 45.1023 72.6107C45.2752 72.7336 45.4012 72.9074 45.4707 73.1079Z" fill="currentColor"/>
<path d="M68.6009 43.1533C67.2432 41.7956 65.2065 41.7956 63.8488 43.1533C62.491 44.5111 62.491 46.5477 63.8488 47.9055L67.2432 51.2999C67.922 51.9788 68.9404 52.3182 69.6192 52.3182C70.2981 52.3182 71.3165 51.9788 71.9953 51.2999C73.3531 49.9421 73.3531 47.9055 71.9953 46.5477L68.6009 43.1533Z" fill="currentColor"/>
<path d="M7.80703 43.1533C9.16479 41.7956 11.2014 41.7956 12.5592 43.1533C13.917 44.5111 13.917 46.5477 12.5592 47.9055L9.16479 51.2999C8.48591 51.9788 7.46759 52.3182 6.78871 52.3182C6.10983 52.3182 5.09151 51.9788 4.41263 51.2999C3.05487 49.9421 3.05487 47.9055 4.41263 46.5477L7.80703 43.1533Z" fill="currentColor"/>
<path d="M73.0134 31.9519H69.619C67.5824 31.9519 66.2246 33.3097 66.2246 35.3463C66.2246 37.3829 67.5824 38.7407 69.619 38.7407H73.0134C75.0501 38.7407 76.4078 37.3829 76.4078 35.3463C76.4078 33.3097 75.0501 31.9519 73.0134 31.9519Z" fill="currentColor"/>
<path d="M3.39455 31.9519H6.78895C8.82559 31.9519 10.1833 33.3097 10.1833 35.3463C10.1833 37.3829 8.82559 38.7407 6.78895 38.7407H3.39455C1.35791 38.7407 0.000146866 37.3829 0.000146866 35.3463C0.000146866 33.3097 1.35791 31.9519 3.39455 31.9519Z" fill="currentColor"/>
<path d="M66.2248 28.5573C67.2432 28.5573 67.9221 28.2179 68.6009 27.539L71.9953 24.1446C73.3531 22.7869 73.3531 20.7502 71.9953 19.3925C70.6376 18.0347 68.6009 18.0347 67.2432 19.3925L63.8488 22.7869C62.491 24.1446 62.491 26.1813 63.8488 27.539C64.5276 28.2179 65.2065 28.5573 66.2248 28.5573Z" fill="currentColor"/>
<path d="M10.1831 28.5573C9.16479 28.5573 8.48591 28.2179 7.80703 27.539L4.41263 24.1446C3.05487 22.7869 3.05487 20.7502 4.41263 19.3925C5.77039 18.0347 7.80703 18.0347 9.16479 19.3925L12.5592 22.7869C13.917 24.1446 13.917 26.1813 12.5592 27.539C11.8803 28.2179 11.2014 28.5573 10.1831 28.5573Z" fill="currentColor"/>
<path d="M215.675 121.615C217.452 121.615 218.34 122.482 218.34 124.215C218.34 125.775 217.43 127.313 215.61 128.83C213.833 130.303 212.208 131.04 210.735 131.04C209.305 131.04 208.352 130.715 207.875 130.065C207.398 129.415 207.16 128.83 207.16 128.31C207.16 127.747 207.355 127.162 207.745 126.555C208.178 125.905 208.72 125.212 209.37 124.475C210.063 123.695 210.973 123.023 212.1 122.46C213.27 121.897 214.462 121.615 215.675 121.615ZM236.181 125.652C236.181 125.482 236.074 125.396 235.861 125.396C235.69 125.396 234.582 125.972 232.536 127.123C230.533 128.231 228.934 128.785 227.741 128.785C226.547 128.785 225.609 128.359 224.927 127.506C224.245 126.654 223.904 125.759 223.904 124.821C223.904 122.05 225.098 119.322 227.485 116.637C229.915 113.951 232.643 111.862 235.669 110.37C238.696 108.878 241.338 108.133 243.598 108.133C245.004 108.133 246.07 108.303 246.795 108.644C247.519 108.985 247.924 109.156 248.01 109.156H248.137C248.223 109.156 248.265 109.134 248.265 109.092C252.059 104.488 256.641 99.5219 262.012 94.1936C267.426 88.8226 270.943 86.1372 272.563 86.1372C273.245 86.2224 273.863 86.7766 274.417 87.7996C275.014 88.8226 275.333 89.9309 275.376 91.1245C275.12 92.0623 271.561 96.0479 264.698 103.081C257.835 110.072 253.977 114.186 253.125 115.422C252.315 116.658 250.12 119.727 246.539 124.629C242.958 129.531 240.955 132.174 240.529 132.558C240.102 132.984 239.548 133.197 238.866 133.197C238.184 133.197 237.438 132.771 236.628 131.918C235.818 131.108 235.413 130.298 235.413 129.488C235.413 128.679 235.541 127.826 235.797 126.931L236.181 125.652ZM242.447 114.974C241.509 114.974 239.868 116.018 237.523 118.107C235.222 120.196 234.071 121.581 234.071 122.263C234.071 122.647 234.241 122.839 234.582 122.839C235.733 122.839 237.438 121.752 239.697 119.578C241.957 117.361 243.086 115.976 243.086 115.422C243.086 115.123 242.873 114.974 242.447 114.974ZM264.519 117.596L267.652 117.276C269.101 117.276 269.826 118.001 269.826 119.45C269.826 120.217 269.122 121.07 267.716 122.008C266.309 122.945 264.881 123.819 263.432 124.629C262.025 125.396 261.322 125.993 261.322 126.419C261.322 126.718 261.663 126.91 262.345 126.995C263.837 126.995 266.671 125.801 270.849 123.414C275.026 121.027 277.264 119.834 277.562 119.834C278.159 119.834 278.457 120.132 278.457 120.729C278.415 121.155 277.051 122.221 274.365 123.926C271.722 125.588 268.611 127.208 265.03 128.785C261.492 130.32 258.785 131.087 256.91 131.087C253.968 131.087 252.498 129.531 252.498 126.419C252.498 125.524 253.095 124.544 254.288 123.478C255.524 122.412 256.739 121.496 257.933 120.729C259.169 119.961 259.787 119.493 259.787 119.322C259.787 119.109 259.489 118.874 258.892 118.619C257.102 117.851 256.206 116.828 256.206 115.55C256.206 113.162 258.189 110.903 262.153 108.772C266.16 106.598 269.868 105.511 273.278 105.511C275.154 105.511 276.71 105.873 277.946 106.598C279.182 107.28 279.8 108.346 279.8 109.795C279.8 111.202 278.799 112.523 276.795 113.759C274.834 114.995 273.428 115.613 272.575 115.613C272.234 115.613 271.914 115.528 271.616 115.358C271.36 115.187 271.232 114.995 271.232 114.782C271.232 114.569 271.808 114.228 272.959 113.759C274.152 113.248 274.749 112.779 274.749 112.353C274.749 112.139 274.429 112.033 273.79 112.033C273.193 112.033 271.19 112.715 267.78 114.079C264.369 115.4 262.664 116.338 262.664 116.892C262.664 117.361 263.282 117.596 264.519 117.596ZM275.925 132.749C275.158 132.749 274.412 132.323 273.687 131.471C273.005 130.618 272.664 129.851 272.664 129.169C272.664 128.444 273.261 126.569 274.455 123.542C275.691 120.516 277.268 117.553 279.186 114.654C281.147 111.713 282.895 110.243 284.429 110.243C285.41 110.243 286.284 110.711 287.051 111.649C287.861 112.544 288.244 113.29 288.202 113.887C288.202 114.484 287.562 115.869 286.284 118.043C285.047 120.217 284.429 121.517 284.429 121.944C284.429 122.37 284.515 122.583 284.685 122.583C284.898 122.583 285.154 122.455 285.452 122.199C285.793 121.901 286.539 121.176 287.69 120.025C288.884 118.874 290.163 117.66 291.527 116.381C292.891 115.102 294.361 113.781 295.939 112.416C299.604 109.262 302.119 107.685 303.484 107.685C303.995 107.685 304.464 108.005 304.89 108.644C305.359 109.241 305.594 109.688 305.594 109.987C305.594 110.285 305.487 110.456 305.274 110.498C302.929 110.925 299.391 113.12 294.66 117.084C290.312 120.75 286.625 123.99 283.598 126.803C280.614 129.616 278.781 131.3 278.099 131.854C277.46 132.451 276.735 132.749 275.925 132.749Z" fill="currentColor"/>
</svg>
