<svg width="140" height="140" viewBox="0 0 140 140" fill="none" xmlns="http://www.w3.org/2000/svg">
<rect width="140" height="140" fill="none"/>
<rect x="-327.5" y="-494.5" width="1439" height="1023" fill="none"/>
<rect width="140" height="140" fill="none"/>
<path d="M60.2755 46.7275L52.3198 54.046L60.2755 62.5842M80.1645 46.7275L88.1202 54.046L80.1645 62.5842M74.1978 38.7991L66.2422 70.5126" stroke="white" stroke-width="5.39457" stroke-linecap="round" stroke-linejoin="round"/>
<path d="M103.593 53.2459C103.237 62.4808 99.7434 71.3182 93.6885 78.3002C91.8955 80.298 90.5278 82.6399 89.6688 85.1832V92.3209C89.6688 94.0551 88.9799 95.7183 87.7537 96.9446C86.5274 98.1708 84.8642 98.8598 83.13 98.8598H57.5939C55.8597 98.8598 54.1965 98.1708 52.9703 96.9446C51.744 95.7183 51.0551 94.0551 51.0551 92.3209V85.1832C50.1957 82.64 48.8281 80.2982 47.0354 78.3002C40.9756 71.3201 37.4769 62.4824 37.1169 53.2459C37.1167 45.5734 39.7704 38.1369 44.6279 32.1977C49.4854 26.2586 56.2477 22.1824 63.7678 20.6606C71.288 19.1387 79.103 20.2649 85.8875 23.848C92.6721 27.4311 98.0084 33.2507 100.991 40.3196C102.726 44.4129 103.615 48.8142 103.607 53.2597L103.593 53.2459ZM97.0543 53.2459C97.0543 46.1667 94.2421 39.3774 89.2363 34.3716C84.2305 29.3658 77.4412 26.5536 70.362 26.5536C63.2827 26.5536 56.4934 29.3658 51.4876 34.3716C46.4818 39.3774 43.6696 46.1667 43.6696 53.2459C43.6696 69.5105 57.5939 76.7102 57.5939 85.1832V92.3209H83.13V85.1832C83.13 76.7102 97.0543 69.5105 97.0543 53.2459ZM86.3994 106.534C86.4003 106.964 86.3164 107.39 86.1525 107.788C85.9886 108.185 85.7479 108.546 85.4442 108.851C85.1406 109.155 84.7798 109.396 84.3827 109.561C83.9856 109.726 83.5599 109.811 83.13 109.811H57.5939C56.7268 109.811 55.8952 109.466 55.2821 108.853C54.669 108.24 54.3245 107.408 54.3245 106.541C54.3245 105.674 54.669 104.843 55.2821 104.229C55.8952 103.616 56.7268 103.272 57.5939 103.272H83.13C83.9959 103.272 84.8264 103.615 85.4394 104.227C86.0523 104.839 86.3976 105.668 86.3994 106.534ZM81.9943 115.221C82.1056 115.543 82.1138 115.892 82.0175 116.219C81.9213 116.546 81.7255 116.834 81.4574 117.045C78.2346 119.547 74.2703 120.906 70.1899 120.906C66.1095 120.906 62.1452 119.547 58.9224 117.045C58.6517 116.837 58.453 116.55 58.3542 116.223C58.2554 115.896 58.2616 115.547 58.3717 115.224C58.4819 114.901 58.6906 114.621 58.9684 114.423C59.2462 114.224 59.5792 114.118 59.9204 114.119H80.4525C80.7931 114.119 81.1253 114.225 81.4028 114.423C81.6804 114.62 81.8826 114.899 81.9943 115.221Z" fill="white"/>
<path d="M119.125 67.1345C116.945 64.9548 113.676 64.9548 111.496 67.1345C109.316 69.3141 109.316 72.5835 111.496 74.7632L116.945 80.2122C118.035 81.302 119.67 81.8469 120.759 81.8469C121.849 81.8469 123.484 81.302 124.574 80.2122C126.753 78.0326 126.753 74.7632 124.574 72.5835L119.125 67.1345Z" fill="white"/>
<path d="M21.533 67.1345C23.7126 64.9548 26.982 64.9548 29.1617 67.1345C31.3413 69.3141 31.3413 72.5835 29.1617 74.7632L23.7126 80.2122C22.6228 81.302 20.9881 81.8469 19.8983 81.8469C18.8084 81.8469 17.1737 81.302 16.0839 80.2122C13.9043 78.0326 13.9043 74.7632 16.0839 72.5835L21.533 67.1345Z" fill="white"/>
<path d="M126.209 49.1527H120.759C117.49 49.1527 115.31 51.3323 115.31 54.6018C115.31 57.8712 117.49 60.0508 120.759 60.0508H126.209C129.478 60.0508 131.658 57.8712 131.658 54.6018C131.658 51.3323 129.478 49.1527 126.209 49.1527Z" fill="white"/>
<path d="M14.449 49.1527H19.8981C23.1675 49.1527 25.3472 51.3323 25.3472 54.6018C25.3472 57.8712 23.1675 60.0508 19.8981 60.0508H14.449C11.1796 60.0508 8.99998 57.8712 8.99998 54.6018C8.99998 51.3323 11.1796 49.1527 14.449 49.1527Z" fill="white"/>
<path d="M115.31 43.7036C116.945 43.7036 118.035 43.1587 119.125 42.0689L124.574 36.6198C126.753 34.4402 126.753 31.1708 124.574 28.9912C122.394 26.8115 119.125 26.8115 116.945 28.9912L111.496 34.4402C109.316 36.6198 109.316 39.8893 111.496 42.0689C112.586 43.1587 113.676 43.7036 115.31 43.7036Z" fill="white"/>
<path d="M25.3473 43.7036C23.7126 43.7036 22.6228 43.1587 21.533 42.0689L16.0839 36.6198C13.9043 34.4402 13.9043 31.1708 16.0839 28.9912C18.2635 26.8115 21.533 26.8115 23.7126 28.9912L29.1617 34.4402C31.3413 36.6198 31.3413 39.8893 29.1617 42.0689C28.0719 43.1587 26.982 43.7036 25.3473 43.7036Z" fill="white"/>
<rect x="-327.5" y="-494.5" width="1439" height="1023" stroke="none"/>
</svg>
